<svg width="32" height="32" viewBox="0 0 32 32" fill="none" 
    xmlns="http://www.w3.org/2000/svg">
    <path d="M16 6C10.4788 6 6 10.4788 6 16C6 21.5212 10.4788 26 16 26C21.5108 26 26 21.5212 26 16C25.9965 10.4788 21.5073 6 16 6ZM22.6018 10.6074C23.7936 12.0598 24.5094 13.9152 24.5337 15.9201C24.2523 15.8645 21.4309 15.2912 18.5921 15.6491C18.5261 15.5066 18.4739 15.3572 18.4079 15.2043C18.2342 14.7908 18.0396 14.3704 17.845 13.9673C20.9861 12.6887 22.4177 10.8471 22.6018 10.6074ZM16 7.47325C18.1682 7.47325 20.1522 8.28631 21.6602 9.62057C21.5073 9.836 20.2182 11.5629 17.1814 12.6991C15.7811 10.1279 14.2314 8.02571 13.9917 7.6991C14.631 7.54969 15.3051 7.47325 16 7.47325ZM12.3655 8.27589C12.5948 8.57818 14.1133 10.6942 15.5309 13.2099C11.5386 14.2731 8.01528 14.2523 7.63654 14.2523C8.18901 11.6046 9.97844 9.40514 12.3655 8.27589ZM7.45238 16.0069C7.45238 15.9201 7.45238 15.8332 7.45238 15.7464C7.82069 15.7568 11.9625 15.8124 16.2258 14.5302C16.476 15.0063 16.7019 15.4962 16.9208 15.9826C16.8131 16.0139 16.6915 16.0486 16.5837 16.0799C12.1814 17.501 9.83947 21.3822 9.64141 21.7088C8.28631 20.2043 7.45238 18.1994 7.45238 16.0069ZM16 24.5441C14.0264 24.5441 12.2057 23.87 10.7602 22.7443C10.9131 22.4281 12.647 19.089 17.4628 17.4072C17.4837 17.3968 17.4941 17.3968 17.5184 17.3864C18.7207 20.4997 19.2106 23.1126 19.3391 23.8596C18.3072 24.3044 17.1814 24.5441 16 24.5441ZM20.7603 23.0778C20.6734 22.5566 20.2182 20.0618 19.0994 16.9937C21.7783 16.5698 24.1202 17.2648 24.4121 17.3621C24.0473 19.7387 22.6783 21.7887 20.7603 23.0778Z" fill="black"/>
</svg>
