<svg width="32" height="32" viewBox="0 0 32 32" fill="none" 
    xmlns="http://www.w3.org/2000/svg">
    <path d="M15.9996 8.62155C18.4028 8.62155 18.6872 8.63084 19.6364 8.67407C20.5138 8.71408 20.9903 8.86055 21.3075 8.9838C21.7277 9.14707 22.0274 9.34213 22.3425 9.65686C22.6576 9.97196 22.8526 10.2717 23.0155 10.6918C23.1388 11.009 23.2852 11.4856 23.3252 12.363C23.3685 13.3119 23.3778 13.5966 23.3778 15.9998C23.3778 18.403 23.3685 18.6874 23.3252 19.6366C23.2852 20.514 23.1388 20.9906 23.0155 21.3078C22.8523 21.728 22.6572 22.0277 22.3425 22.3428C22.0274 22.6579 21.7277 22.8529 21.3075 23.0158C20.9903 23.1391 20.5138 23.2856 19.6364 23.3256C18.6875 23.3688 18.4028 23.3781 15.9996 23.3781C13.5965 23.3781 13.3118 23.3688 12.3629 23.3256C11.4855 23.2856 11.009 23.1391 10.6917 23.0158C10.2716 22.8526 9.9719 22.6575 9.65681 22.3428C9.34172 22.0277 9.14667 21.728 8.98377 21.3078C8.86052 20.9906 8.71405 20.514 8.67404 19.6366C8.63081 18.6878 8.62152 18.403 8.62152 15.9998C8.62152 13.5966 8.63081 13.3122 8.67404 12.363C8.71405 11.4856 8.86052 11.009 8.98377 10.6918C9.14702 10.2717 9.34208 9.97196 9.65681 9.65686C9.9719 9.34177 10.2716 9.14671 10.6917 8.9838C11.009 8.86055 11.4855 8.71408 12.3629 8.67407C13.3121 8.63084 13.5965 8.62155 15.9996 8.62155ZM15.9996 7C13.5554 7 13.2489 7.01036 12.289 7.0543C11.3312 7.09789 10.6771 7.25007 10.1044 7.47264C9.51248 7.70271 9.01056 8.0103 8.51042 8.51081C8.01028 9.01096 7.70234 9.51289 7.47263 10.1045C7.25007 10.6772 7.09788 11.3313 7.0543 12.2891C7.01036 13.249 7 13.5555 7 15.9998C7 18.4441 7.01036 18.7506 7.0543 19.7106C7.09788 20.6684 7.25007 21.3225 7.47263 21.8951C7.7027 22.4871 8.01028 22.989 8.51078 23.4892C9.01127 23.9897 9.51284 24.2973 10.1048 24.5274C10.6771 24.7499 11.3316 24.9021 12.2893 24.9457C13.2492 24.9896 13.5557 25 16 25C18.4443 25 18.7508 24.9896 19.7107 24.9457C20.6684 24.9021 21.3229 24.7499 21.8952 24.5274C22.4872 24.2973 22.9891 23.9897 23.4892 23.4892C23.9897 22.9887 24.2973 22.4871 24.5274 21.8951C24.7499 21.3228 24.9021 20.6684 24.9457 19.7106C24.9896 18.7506 25 18.4441 25 15.9998C25 13.5555 24.9896 13.249 24.9457 12.2891C24.9021 11.3313 24.7499 10.6768 24.5274 10.1045C24.2973 9.51253 23.9897 9.0106 23.4892 8.51045C22.9887 8.00994 22.4872 7.70235 21.8952 7.47228C21.3222 7.25007 20.6681 7.09789 19.7103 7.0543C18.7504 7.01036 18.4439 7 15.9996 7Z" fill="black"/>
    <path d="M15.9996 11.3784C13.4471 11.3784 11.3784 13.4476 11.3784 15.9998C11.3784 18.552 13.4475 20.6212 15.9996 20.6212C18.5518 20.6212 20.6209 18.552 20.6209 15.9998C20.6209 13.4476 18.5521 11.3784 15.9996 11.3784ZM15.9996 18.9996C14.3428 18.9996 12.9999 17.6564 12.9999 15.9998C12.9999 14.3429 14.3431 13 15.9996 13C17.6562 13 18.9994 14.3432 18.9994 15.9998C18.9994 17.6567 17.6565 18.9996 15.9996 18.9996Z" fill="black"/>
    <path d="M20.8038 12.2755C21.4003 12.2755 21.8838 11.792 21.8838 11.1955C21.8838 10.5991 21.4003 10.1156 20.8038 10.1156C20.2074 10.1156 19.7239 10.5991 19.7239 11.1955C19.7239 11.792 20.2074 12.2755 20.8038 12.2755Z" fill="black"/>
</svg>
