<svg width="32" height="32" viewBox="0 0 32 32" fill="none" 
    xmlns="http://www.w3.org/2000/svg">
    <path d="M23.6351 7.00024H8.36493C7.68246 7.00024 7.08531 7.60024 7 8.28596V23.7145C7 24.4002 7.59716 25.0002 8.36493 25.0002H23.6351C24.3175 25.0002 24.9147 24.4002 25 23.7145V8.28596C25 7.60024 24.4028 7.00024 23.6351 7.00024ZM12.3744 22.3431H9.72986V13.7717H12.3744V22.3431ZM11.0095 12.5717C10.1564 12.5717 9.47393 11.886 9.47393 11.0288C9.47393 10.1717 10.1564 9.48596 11.0095 9.48596C11.8626 9.48596 12.545 10.1717 12.545 11.0288C12.545 11.886 11.8626 12.5717 11.0095 12.5717ZM22.3555 22.3431H19.7109V18.1431C19.7109 17.1145 19.7109 15.8288 18.346 15.8288C16.981 15.8288 16.7251 16.9431 16.7251 18.0574V22.3431H14.0806V13.7717H16.6398V14.9717C17.1517 14.1145 18.09 13.5145 19.1137 13.6002C21.8436 13.6002 22.2701 15.4002 22.2701 17.7145L22.3555 22.3431Z" fill="black"/>
</svg>
