<svg width="32" height="32" viewBox="0 0 32 32" fill="none" 
    xmlns="http://www.w3.org/2000/svg">
    <path d="M27 9.1278C26.1929 9.48818 25.3212 9.73355 24.4075 9.84473C25.3402 9.28115 26.0559 8.39169 26.3947 7.32971C25.5229 7.85112 24.556 8.22684 23.5281 8.43387C22.7058 7.54824 21.5295 7 20.2314 7C17.7378 7 15.7164 9.03578 15.7164 11.547C15.7164 11.9035 15.7545 12.2524 15.8344 12.5821C12.0846 12.3904 8.7574 10.5808 6.53037 7.83195C6.14207 8.49904 5.92127 9.28115 5.92127 10.1131C5.92127 11.6927 6.71691 13.0843 7.9275 13.8971C7.18896 13.8741 6.4923 13.6671 5.8832 13.3259C5.8832 13.345 5.8832 13.3642 5.8832 13.3834C5.8832 15.584 7.44021 17.4204 9.50355 17.8383C9.12667 17.9419 8.72694 17.9994 8.3158 17.9994C8.02648 17.9994 7.74096 17.9725 7.46686 17.9188C8.0417 19.7246 9.70912 21.0396 11.6849 21.0741C10.1393 22.2933 8.19398 23.0179 6.07735 23.0179C5.71189 23.0179 5.35404 22.9987 5 22.9565C6.99862 24.2447 9.37031 25 11.9171 25C20.2199 25 24.7616 18.0722 24.7616 12.0645C24.7616 11.869 24.7577 11.6735 24.7501 11.478C25.6333 10.8415 26.3947 10.0403 27 9.1278Z" fill="black"/>
</svg>
